<svg>
    <symbol id="check-circle" viewBox="0 0 16 17" fill="none" xmlns="http://www.w3.org/2000/svg">
      <path fill-rule="evenodd" clip-rule="evenodd"
        d="M8 16.5C10.1217 16.5 12.1566 15.6571 13.6569 14.1569C15.1571 12.6566 16 10.6217 16 8.5C16 6.37827 15.1571 4.34344 13.6569 2.84315C12.1566 1.34285 10.1217 0.5 8 0.5C5.87827 0.5 3.84344 1.34285 2.34315 2.84315C0.842855 4.34344 0 6.37827 0 8.5C0 10.6217 0.842855 12.6566 2.34315 14.1569C3.84344 15.6571 5.87827 16.5 8 16.5ZM11.707 7.207C11.8892 7.0184 11.99 6.7658 11.9877 6.5036C11.9854 6.2414 11.8802 5.99059 11.6948 5.80518C11.5094 5.61977 11.2586 5.5146 10.9964 5.51233C10.7342 5.51005 10.4816 5.61084 10.293 5.793L7 9.086L5.707 7.793C5.5184 7.61084 5.2658 7.51005 5.0036 7.51233C4.7414 7.5146 4.49059 7.61977 4.30518 7.80518C4.11977 7.99059 4.0146 8.2414 4.01233 8.5036C4.01005 8.7658 4.11084 9.0184 4.293 9.207L6.293 11.207C6.48053 11.3945 6.73484 11.4998 7 11.4998C7.26516 11.4998 7.51947 11.3945 7.707 11.207L11.707 7.207Z"
        fill="#7E3AF2" />
    </symbol>

    <symbol id="server" viewBox="0 0 48 48" fill="none" xmlns="http://www.w3.org/2000/svg">
      <path fill-rule="evenodd" clip-rule="evenodd"
        d="M4.8 12C4.8 10.727 5.30572 9.50607 6.20589 8.6059C7.10607 7.70572 8.32696 7.20001 9.6 7.20001H38.4C39.673 7.20001 40.8939 7.70572 41.7941 8.6059C42.6943 9.50607 43.2 10.727 43.2 12V16.8C43.2 18.0731 42.6943 19.2939 41.7941 20.1941C40.8939 21.0943 39.673 21.6 38.4 21.6H9.6C8.32696 21.6 7.10607 21.0943 6.20589 20.1941C5.30572 19.2939 4.8 18.0731 4.8 16.8V12ZM38.4 14.4C38.4 15.0365 38.1471 15.647 37.6971 16.0971C37.247 16.5472 36.6365 16.8 36 16.8C35.3635 16.8 34.753 16.5472 34.3029 16.0971C33.8529 15.647 33.6 15.0365 33.6 14.4C33.6 13.7635 33.8529 13.153 34.3029 12.703C34.753 12.2529 35.3635 12 36 12C36.6365 12 37.247 12.2529 37.6971 12.703C38.1471 13.153 38.4 13.7635 38.4 14.4ZM4.8 31.2C4.8 29.927 5.30572 28.7061 6.20589 27.8059C7.10607 26.9057 8.32696 26.4 9.6 26.4H38.4C39.673 26.4 40.8939 26.9057 41.7941 27.8059C42.6943 28.7061 43.2 29.927 43.2 31.2V36C43.2 37.2731 42.6943 38.4939 41.7941 39.3941C40.8939 40.2943 39.673 40.8 38.4 40.8H9.6C8.32696 40.8 7.10607 40.2943 6.20589 39.3941C5.30572 38.4939 4.8 37.2731 4.8 36V31.2ZM38.4 33.6C38.4 34.2365 38.1471 34.847 37.6971 35.2971C37.247 35.7472 36.6365 36 36 36C35.3635 36 34.753 35.7472 34.3029 35.2971C33.8529 34.847 33.6 34.2365 33.6 33.6C33.6 32.9635 33.8529 32.353 34.3029 31.903C34.753 31.4529 35.3635 31.2 36 31.2C36.6365 31.2 37.247 31.4529 37.6971 31.903C38.1471 32.353 38.4 32.9635 38.4 33.6Z"
        fill="#7E3AF2" />
    </symbol>

    <symbol id="users" viewBox="0 0 48 48" fill="none" xmlns="http://www.w3.org/2000/svg">
      <path
        d="M21.6 14.4C21.6 16.3096 20.8414 18.1409 19.4912 19.4912C18.1409 20.8414 16.3096 21.6 14.4 21.6C12.4904 21.6 10.6591 20.8414 9.30883 19.4912C7.95856 18.1409 7.19999 16.3096 7.19999 14.4C7.19999 12.4905 7.95856 10.6591 9.30883 9.30884C10.6591 7.95858 12.4904 7.20001 14.4 7.20001C16.3096 7.20001 18.1409 7.95858 19.4912 9.30884C20.8414 10.6591 21.6 12.4905 21.6 14.4ZM40.8 14.4C40.8 15.3455 40.6138 16.2818 40.2519 17.1553C39.8901 18.0289 39.3597 18.8226 38.6912 19.4912C38.0226 20.1598 37.2289 20.6901 36.3553 21.0519C35.4818 21.4138 34.5455 21.6 33.6 21.6C32.6545 21.6 31.7182 21.4138 30.8447 21.0519C29.9711 20.6901 29.1774 20.1598 28.5088 19.4912C27.8402 18.8226 27.3099 18.0289 26.9481 17.1553C26.5862 16.2818 26.4 15.3455 26.4 14.4C26.4 12.4905 27.1586 10.6591 28.5088 9.30884C29.8591 7.95858 31.6904 7.20001 33.6 7.20001C35.5096 7.20001 37.3409 7.95858 38.6912 9.30884C40.0414 10.6591 40.8 12.4905 40.8 14.4ZM31.032 40.8C31.1424 40.0152 31.2 39.216 31.2 38.4C31.2055 34.6293 29.937 30.9673 27.6 28.008C29.4242 26.9548 31.4935 26.4003 33.5999 26.4003C35.7063 26.4003 37.7756 26.9548 39.5999 28.0079C41.4241 29.0611 42.9389 30.5759 43.9922 32.4001C45.0454 34.2243 45.5999 36.2936 45.6 38.4V40.8H31.032ZM14.4 26.4C17.5826 26.4 20.6348 27.6643 22.8853 29.9147C25.1357 32.1652 26.4 35.2174 26.4 38.4V40.8H2.39999V38.4C2.39999 35.2174 3.66428 32.1652 5.91471 29.9147C8.16515 27.6643 11.2174 26.4 14.4 26.4Z"
        fill="#7E3AF2" />
    </symbol>

    <symbol id="shopping-cart" viewBox="0 0 48 48" fill="none" xmlns="http://www.w3.org/2000/svg">
      <path
        d="M7.2 2.39999C6.56348 2.39999 5.95303 2.65285 5.50295 3.10294C5.05286 3.55302 4.8 4.16347 4.8 4.79999C4.8 5.43651 5.05286 6.04696 5.50295 6.49705C5.95303 6.94714 6.56348 7.19999 7.2 7.19999H10.128L10.86 10.1328C10.8673 10.1666 10.8753 10.2002 10.884 10.2336L14.1432 23.2656L12 25.4064C8.976 28.4304 11.1168 33.6 15.3936 33.6H36C36.6365 33.6 37.247 33.3471 37.6971 32.897C38.1471 32.447 38.4 31.8365 38.4 31.2C38.4 30.5635 38.1471 29.953 37.6971 29.5029C37.247 29.0528 36.6365 28.8 36 28.8H15.3936L17.7936 26.4H33.6C34.0456 26.3998 34.4823 26.2755 34.8613 26.0411C35.2402 25.8067 35.5464 25.4714 35.7456 25.0728L42.9456 10.6728C43.1284 10.307 43.2147 9.90053 43.1963 9.49201C43.1779 9.08348 43.0554 8.68644 42.8405 8.33854C42.6255 7.99064 42.3253 7.70344 41.9682 7.50418C41.611 7.30492 41.2089 7.20021 40.8 7.19999H15.072L14.328 4.21679C14.198 3.6978 13.8983 3.23713 13.4765 2.90797C13.0547 2.5788 12.535 2.40001 12 2.39999H7.2ZM38.4 39.6C38.4 40.5548 38.0207 41.4704 37.3456 42.1456C36.6705 42.8207 35.7548 43.2 34.8 43.2C33.8452 43.2 32.9296 42.8207 32.2544 42.1456C31.5793 41.4704 31.2 40.5548 31.2 39.6C31.2 38.6452 31.5793 37.7295 32.2544 37.0544C32.9296 36.3793 33.8452 36 34.8 36C35.7548 36 36.6705 36.3793 37.3456 37.0544C38.0207 37.7295 38.4 38.6452 38.4 39.6ZM15.6 43.2C16.5548 43.2 17.4705 42.8207 18.1456 42.1456C18.8207 41.4704 19.2 40.5548 19.2 39.6C19.2 38.6452 18.8207 37.7295 18.1456 37.0544C17.4705 36.3793 16.5548 36 15.6 36C14.6452 36 13.7295 36.3793 13.0544 37.0544C12.3793 37.7295 12 38.6452 12 39.6C12 40.5548 12.3793 41.4704 13.0544 42.1456C13.7295 42.8207 14.6452 43.2 15.6 43.2Z"
        fill="#7E3AF2" />
    </symbol>

    <symbol id="globe" viewBox="0 0 48 48" fill="none" xmlns="http://www.w3.org/2000/svg">
      <path fill-rule="evenodd" clip-rule="evenodd"
        d="M24 43.2C29.0921 43.2 33.9757 41.1771 37.5764 37.5764C41.1771 33.9757 43.2 29.0921 43.2 24C43.2 18.9078 41.1771 14.0242 37.5764 10.4235C33.9757 6.82284 29.0921 4.79999 24 4.79999C18.9078 4.79999 14.0242 6.82284 10.4235 10.4235C6.82284 14.0242 4.79999 18.9078 4.79999 24C4.79999 29.0921 6.82284 33.9757 10.4235 37.5764C14.0242 41.1771 18.9078 43.2 24 43.2ZM10.3968 19.2648C11.2879 16.7129 12.8779 14.4626 14.9856 12.7704C15.6288 13.752 16.7376 14.4 18 14.4C18.9548 14.4 19.8704 14.7793 20.5456 15.4544C21.2207 16.1295 21.6 17.0452 21.6 18V19.2C21.6 20.473 22.1057 21.6939 23.0059 22.5941C23.9061 23.4943 25.1269 24 26.4 24C27.673 24 28.8939 23.4943 29.7941 22.5941C30.6943 21.6939 31.2 20.473 31.2 19.2C31.1996 18.1258 31.5595 17.0825 32.2222 16.2371C32.8849 15.3917 33.812 14.793 34.8552 14.5368C37.1455 17.1568 38.4054 20.52 38.4 24C38.4 24.816 38.3328 25.62 38.2008 26.4H36C34.7269 26.4 33.5061 26.9057 32.6059 27.8059C31.7057 28.7061 31.2 29.927 31.2 31.2V36.4728C29.0119 37.7388 26.5279 38.4037 24 38.4V33.6C24 32.327 23.4943 31.1061 22.5941 30.2059C21.6939 29.3057 20.473 28.8 19.2 28.8C17.9269 28.8 16.706 28.2943 15.8059 27.3941C14.9057 26.4939 14.4 25.273 14.4 24C14.4004 22.8648 13.9985 21.7662 13.2656 20.8993C12.5327 20.0323 11.5162 19.4532 10.3968 19.2648Z"
        fill="#7E3AF2" />
    </symbol>

    <symbol id="arrow-right" viewBox="0 0 16 16" fill="none" xmlns="http://www.w3.org/2000/svg">
      <path d="M14 8.00001H2H14Z" fill="#7E3AF2" />
      <path d="M9.33333 3.33334L14 8.00001M14 8.00001L9.33333 12.6667M14 8.00001H2" stroke="#7E3AF2" stroke-width="2"
        stroke-linecap="round" stroke-linejoin="round" />
    </symbol>

    <symbol id="quotes" viewBox="0 0 48 45" fill="none" xmlns="http://www.w3.org/2000/svg">
      <path
        d="M28.034 36L28.034 21.218C28.034 9.81 35.496 2.078 46 0L47.99 4.302C43.126 6.136 40 11.578 40 16H48V36H28.034ZM0 36V21.218C0 9.81 7.496 2.076 18 0L19.992 4.302C15.126 6.136 12 11.578 12 16H19.966L19.966 36L0 36Z"
        fill="#9CA3AF" />
    </symbol>

    <symbol id="check" viewBox="0 0 20 20" fill="none" xmlns="http://www.w3.org/2000/svg">
      <path fill-rule="evenodd" clip-rule="evenodd"
        d="M16.707 5.29303C16.8945 5.48056 16.9998 5.73487 16.9998 6.00003C16.9998 6.26519 16.8945 6.5195 16.707 6.70703L8.70698 14.707C8.51945 14.8945 8.26514 14.9998 7.99998 14.9998C7.73482 14.9998 7.48051 14.8945 7.29298 14.707L3.29298 10.707C3.11082 10.5184 3.01003 10.2658 3.01231 10.0036C3.01458 9.74143 3.11975 9.49062 3.30516 9.30521C3.49057 9.1198 3.74138 9.01464 4.00358 9.01236C4.26578 9.01008 4.51838 9.11087 4.70698 9.29303L7.99998 12.586L15.293 5.29303C15.4805 5.10556 15.7348 5.00024 16 5.00024C16.2651 5.00024 16.5195 5.10556 16.707 5.29303Z"
        fill="#0694A2" />
    </symbol>

    <symbol id="chevron-down" viewBox="0 0 17 16" fill="none" xmlns="http://www.w3.org/2000/svg">
      <path d="M13.1667 6L8.50001 10.6667L3.83334 6" stroke="currentColor" stroke-width="2" stroke-linecap="round"
        stroke-linejoin="round" />
    </symbol>

    <symbol id="github" viewBox="0 0 24 24" fill="none" xmlns="http://www.w3.org/2000/svg">
      <path
        d="M8.80078 16.7109C8.80078 16.6406 8.73047 16.5703 8.625 16.5703C8.51953 16.5703 8.44922 16.6406 8.44922 16.7109C8.44922 16.7812 8.51953 16.8516 8.625 16.8164C8.73047 16.8164 8.80078 16.7812 8.80078 16.7109ZM7.71094 16.5352C7.71094 16.6055 7.78125 16.7109 7.88672 16.7109C7.95703 16.7461 8.0625 16.7109 8.09766 16.6406C8.09766 16.5703 8.0625 16.5 7.95703 16.4648C7.85156 16.4297 7.74609 16.4648 7.71094 16.5352ZM9.29297 16.5C9.1875 16.5 9.11719 16.5703 9.11719 16.6758C9.11719 16.7461 9.22266 16.7812 9.32812 16.7461C9.43359 16.7109 9.50391 16.6758 9.46875 16.6055C9.46875 16.5352 9.36328 16.4648 9.29297 16.5ZM11.5781 3C6.72656 3 3 6.72656 3 11.5781C3 15.4805 5.42578 18.8203 8.94141 20.0156C9.39844 20.0859 9.53906 19.8047 9.53906 19.5938C9.53906 19.3477 9.53906 18.1523 9.53906 17.4141C9.53906 17.4141 7.07812 17.9414 6.55078 16.3594C6.55078 16.3594 6.16406 15.3398 5.60156 15.0938C5.60156 15.0938 4.79297 14.5312 5.63672 14.5312C5.63672 14.5312 6.51562 14.6016 7.00781 15.4453C7.78125 16.8164 9.04688 16.4297 9.57422 16.1836C9.64453 15.6211 9.85547 15.2344 10.1367 14.9883C8.16797 14.7773 6.16406 14.4961 6.16406 11.1211C6.16406 10.1367 6.44531 9.67969 7.00781 9.04688C6.90234 8.80078 6.62109 7.88672 7.11328 6.65625C7.81641 6.44531 9.53906 7.60547 9.53906 7.60547C10.2422 7.39453 10.9805 7.32422 11.7188 7.32422C12.4922 7.32422 13.2305 7.39453 13.9336 7.60547C13.9336 7.60547 15.6211 6.41016 16.3594 6.65625C16.8516 7.88672 16.5352 8.80078 16.4648 9.04688C17.0273 9.67969 17.3789 10.1367 17.3789 11.1211C17.3789 14.4961 15.3047 14.7773 13.3359 14.9883C13.6523 15.2695 13.9336 15.7969 13.9336 16.6406C13.9336 17.8008 13.8984 19.2773 13.8984 19.5586C13.8984 19.8047 14.0742 20.0859 14.5312 19.9805C18.0469 18.8203 20.4375 15.4805 20.4375 11.5781C20.4375 6.72656 16.4648 3 11.5781 3ZM6.41016 15.1289C6.33984 15.1641 6.375 15.2695 6.41016 15.3398C6.48047 15.375 6.55078 15.4102 6.62109 15.375C6.65625 15.3398 6.65625 15.2344 6.58594 15.1641C6.51562 15.1289 6.44531 15.0938 6.41016 15.1289ZM6.02344 14.8477C5.98828 14.918 6.02344 14.9531 6.09375 14.9883C6.16406 15.0234 6.23438 15.0234 6.26953 14.9531C6.26953 14.918 6.23438 14.8828 6.16406 14.8477C6.09375 14.8125 6.05859 14.8125 6.02344 14.8477ZM7.14844 16.1133C7.11328 16.1484 7.11328 16.2539 7.21875 16.3242C7.28906 16.3945 7.39453 16.4297 7.42969 16.3594C7.46484 16.3242 7.46484 16.2188 7.39453 16.1484C7.32422 16.0781 7.21875 16.043 7.14844 16.1133ZM6.76172 15.5859C6.69141 15.6211 6.69141 15.7266 6.76172 15.7969C6.83203 15.8672 6.90234 15.9023 6.97266 15.8672C7.00781 15.832 7.00781 15.7266 6.97266 15.6562C6.90234 15.5859 6.83203 15.5508 6.76172 15.5859Z"
        fill="currentColor" />
    </symbol>

    <symbol id="twitter" viewBox="0 0 24 24" fill="none" xmlns="http://www.w3.org/2000/svg">
      <path
        d="M19.1367 8.62109C19.8398 8.09375 20.4727 7.46094 20.9648 6.72266C20.332 7.00391 19.5938 7.21484 18.8555 7.28516C19.6289 6.82812 20.1914 6.125 20.4727 5.24609C19.7695 5.66797 18.9609 5.98438 18.1523 6.16016C17.4492 5.42188 16.5 5 15.4453 5C13.4062 5 11.7539 6.65234 11.7539 8.69141C11.7539 8.97266 11.7891 9.25391 11.8594 9.53516C8.80078 9.35938 6.05859 7.88281 4.23047 5.66797C3.91406 6.19531 3.73828 6.82812 3.73828 7.53125C3.73828 8.79688 4.37109 9.92188 5.39062 10.5898C4.79297 10.5547 4.19531 10.4141 3.70312 10.1328V10.168C3.70312 11.9609 4.96875 13.4375 6.65625 13.7891C6.375 13.8594 6.02344 13.9297 5.70703 13.9297C5.46094 13.9297 5.25 13.8945 5.00391 13.8594C5.46094 15.3359 6.83203 16.3906 8.44922 16.4258C7.18359 17.4102 5.60156 18.0078 3.87891 18.0078C3.5625 18.0078 3.28125 17.9727 3 17.9375C4.61719 18.9922 6.55078 19.5898 8.66016 19.5898C15.4453 19.5898 19.1367 14 19.1367 9.11328C19.1367 8.9375 19.1367 8.79688 19.1367 8.62109Z"
        fill="currentColor" />
    </symbol>

    <symbol id="dribbble" viewBox="0 0 24 24" fill="none" xmlns="http://www.w3.org/2000/svg">
      <path
        d="M11.7188 3C6.90234 3 3 6.9375 3 11.7188C3 16.5352 6.90234 20.4375 11.7188 20.4375C16.5 20.4375 20.4375 16.5352 20.4375 11.7188C20.4375 6.9375 16.5 3 11.7188 3ZM17.4492 7.04297C18.5039 8.30859 19.1367 9.92578 19.1367 11.6836C18.8906 11.6133 16.4297 11.1211 13.9688 11.4375C13.7578 10.9453 13.582 10.5234 13.3008 9.96094C16.0781 8.83594 17.3086 7.25391 17.4492 7.04297ZM16.6406 6.16406C16.5 6.375 15.375 7.88672 12.7383 8.87109C11.5078 6.62109 10.1719 4.79297 9.96094 4.51172C12.3164 3.94922 14.8125 4.54688 16.6406 6.16406ZM8.51953 5.00391C8.73047 5.28516 10.0664 7.11328 11.2969 9.32812C7.81641 10.2422 4.75781 10.2422 4.40625 10.207C4.89844 7.92188 6.44531 5.98828 8.51953 5.00391ZM4.26562 11.7539C4.26562 11.6836 4.26562 11.6133 4.26562 11.5078C4.58203 11.543 8.20312 11.5781 11.8945 10.4531C12.1406 10.875 12.3164 11.2969 12.5273 11.7188C9.82031 12.4922 7.35938 14.6719 6.16406 16.7109C4.96875 15.4102 4.26562 13.6523 4.26562 11.7539ZM7.11328 17.625C7.92188 16.043 10.0312 13.9688 13.0195 12.9492C14.0742 15.6562 14.4961 17.9414 14.6016 18.6094C12.2109 19.6289 9.32812 19.3477 7.11328 17.625ZM15.8672 17.9062C15.7969 17.4844 15.375 15.3047 14.4258 12.5977C16.7461 12.2461 18.7852 12.8438 19.0664 12.9141C18.7148 14.9883 17.5195 16.7812 15.8672 17.9062Z"
        fill="currentColor" />
    </symbol>

    <symbol id="facebook" viewBox="0 0 24 24" fill="none" xmlns="http://www.w3.org/2000/svg">
      <path
        d="M16.0352 13.125L16.5273 9.89062H13.3984V7.78125C13.3984 6.86719 13.8203 6.02344 15.2266 6.02344H16.668V3.24609C16.668 3.24609 15.3672 3 14.1367 3C11.5703 3 9.88281 4.58203 9.88281 7.39453V9.89062H7V13.125H9.88281V21H13.3984V13.125H16.0352Z"
        fill="currentColor" />
    </symbol>

    <symbol id="arrow-up" xmlns="http://www.w3.org/2000/svg" fill="none" viewBox="0 0 24 24" stroke-width="1.5"
      stroke="currentColor">
      <path stroke-linecap="round" stroke-linejoin="round" d="M4.5 10.5 12 3m0 0 7.5 7.5M12 3v18" />
    </symbol>
  </svg>